<svg width="157" height="80" viewBox="0 0 157 80" fill="none" xmlns="http://www.w3.org/2000/svg">
        <path d="M2.64205 66.5V31.5909H11.0795V45.6023H24.8352V31.5909H33.2557V66.5H24.8352V52.4716H11.0795V66.5H2.64205ZM45.929 66.9432C44.2585 66.9432 42.7756 66.6648 41.4801 66.108C40.196 65.5398 39.179 64.6875 38.429 63.5511C37.6903 62.4034 37.321 60.9659 37.321 59.2386C37.321 57.7841 37.5767 56.5568 38.0881 55.5568C38.5994 54.5568 39.304 53.7443 40.2017 53.1193C41.0994 52.4943 42.1335 52.0227 43.304 51.7045C44.4744 51.375 45.7244 51.1534 47.054 51.0398C48.5426 50.9034 49.7415 50.7614 50.6506 50.6136C51.5597 50.4545 52.2188 50.233 52.6278 49.9489C53.0483 49.6534 53.2585 49.2386 53.2585 48.7045V48.6193C53.2585 47.7443 52.9574 47.0682 52.3551 46.5909C51.7528 46.1136 50.9403 45.875 49.9176 45.875C48.8153 45.875 47.929 46.1136 47.2585 46.5909C46.5881 47.0682 46.1619 47.7273 45.9801 48.5682L38.2926 48.2955C38.5199 46.7045 39.1051 45.2841 40.0483 44.0341C41.0028 42.7727 42.3097 41.7841 43.9688 41.0682C45.6392 40.3409 47.6449 39.9773 49.9858 39.9773C51.6563 39.9773 53.196 40.1761 54.6051 40.5739C56.0142 40.9602 57.2415 41.5284 58.2869 42.2784C59.3324 43.017 60.1392 43.9261 60.7074 45.0057C61.2869 46.0852 61.5767 47.3182 61.5767 48.7045V66.5H53.7358V62.8523H53.5312C53.0653 63.7386 52.4688 64.4886 51.7415 65.1023C51.0256 65.7159 50.179 66.1761 49.2017 66.483C48.2358 66.7898 47.1449 66.9432 45.929 66.9432ZM48.5028 61.4886C49.4006 61.4886 50.2074 61.3068 50.9233 60.9432C51.6506 60.5795 52.2301 60.0795 52.6619 59.4432C53.0938 58.7955 53.3097 58.0455 53.3097 57.1932V54.7045C53.071 54.8295 52.7813 54.9432 52.4403 55.0455C52.1108 55.1477 51.7472 55.2443 51.3494 55.3352C50.9517 55.4261 50.5426 55.5057 50.1222 55.5739C49.7017 55.642 49.2983 55.7045 48.9119 55.7614C48.1278 55.8864 47.4574 56.0795 46.9006 56.3409C46.3551 56.6023 45.9347 56.9432 45.6392 57.3636C45.3551 57.7727 45.2131 58.2614 45.2131 58.8295C45.2131 59.6932 45.5199 60.3523 46.1335 60.8068C46.7585 61.2614 47.5483 61.4886 48.5028 61.4886ZM66.6733 66.5V31.5909H75.0085V44.8011H75.179C75.5199 44.0057 76.0028 43.2386 76.6278 42.5C77.2642 41.7614 78.071 41.1591 79.0483 40.6932C80.0369 40.2159 81.2188 39.9773 82.5938 39.9773C84.4119 39.9773 86.1108 40.4545 87.6903 41.4091C89.2812 42.3636 90.5653 43.8352 91.5426 45.8239C92.5199 47.8125 93.0085 50.3466 93.0085 53.4261C93.0085 56.392 92.5369 58.875 91.5938 60.875C90.6619 62.875 89.4006 64.375 87.8097 65.375C86.2301 66.375 84.4744 66.875 82.5426 66.875C81.2244 66.875 80.0824 66.6591 79.1165 66.2273C78.1506 65.7955 77.3381 65.2273 76.679 64.5227C76.0312 63.8182 75.5313 63.0625 75.179 62.2557H74.9233V66.5H66.6733ZM74.8381 53.4091C74.8381 54.8182 75.0256 56.0455 75.4006 57.0909C75.7869 58.1364 76.3381 58.9489 77.054 59.5284C77.7812 60.0966 78.6506 60.3807 79.6619 60.3807C80.6847 60.3807 81.554 60.0966 82.2699 59.5284C82.9858 58.9489 83.5256 58.1364 83.8892 57.0909C84.2642 56.0455 84.4517 54.8182 84.4517 53.4091C84.4517 52 84.2642 50.7784 83.8892 49.7443C83.5256 48.7102 82.9858 47.9091 82.2699 47.3409C81.5653 46.7727 80.696 46.4886 79.6619 46.4886C78.6392 46.4886 77.7699 46.767 77.054 47.3239C76.3381 47.8807 75.7869 48.6761 75.4006 49.7102C75.0256 50.7443 74.8381 51.9773 74.8381 53.4091ZM97.3764 66.5V40.3182H105.712V66.5H97.3764ZM101.553 37.267C100.382 37.267 99.3764 36.8807 98.5355 36.108C97.6946 35.3239 97.2741 34.3807 97.2741 33.2784C97.2741 32.1875 97.6946 31.2557 98.5355 30.483C99.3764 29.6989 100.382 29.3068 101.553 29.3068C102.734 29.3068 103.74 29.6989 104.57 30.483C105.411 31.2557 105.831 32.1875 105.831 33.2784C105.831 34.3807 105.411 35.3239 104.57 36.108C103.74 36.8807 102.734 37.267 101.553 37.267ZM125.795 40.3182V46.4545H109.278V40.3182H125.795ZM112.739 34.0455H121.074V58.267C121.074 58.7784 121.153 59.1932 121.312 59.5114C121.483 59.8182 121.727 60.0398 122.045 60.1761C122.364 60.3011 122.744 60.3636 123.188 60.3636C123.506 60.3636 123.841 60.3352 124.193 60.2784C124.557 60.2102 124.83 60.1534 125.011 60.108L126.273 66.125C125.875 66.2386 125.313 66.3807 124.585 66.5511C123.869 66.7216 123.011 66.8295 122.011 66.875C120.057 66.9659 118.381 66.7386 116.983 66.1932C115.597 65.6364 114.534 64.7727 113.795 63.6023C113.068 62.4318 112.716 60.9602 112.739 59.1875V34.0455ZM152.578 48.3125L144.925 48.517C144.845 47.9716 144.629 47.4886 144.277 47.0682C143.925 46.6364 143.464 46.3011 142.896 46.0625C142.339 45.8125 141.692 45.6875 140.953 45.6875C139.987 45.6875 139.163 45.8807 138.482 46.267C137.811 46.6534 137.482 47.1761 137.493 47.8352C137.482 48.3466 137.686 48.7898 138.107 49.1648C138.538 49.5398 139.305 49.8409 140.408 50.0682L145.453 51.0227C148.067 51.5227 150.01 52.3523 151.283 53.5114C152.567 54.6705 153.214 56.2045 153.226 58.1136C153.214 59.9091 152.68 61.4716 151.624 62.8011C150.578 64.1307 149.146 65.1648 147.328 65.9034C145.51 66.6307 143.43 66.9943 141.089 66.9943C137.351 66.9943 134.402 66.2273 132.243 64.6932C130.095 63.1477 128.868 61.0795 128.561 58.4886L136.794 58.2841C136.976 59.2386 137.447 59.9659 138.209 60.4659C138.97 60.9659 139.942 61.2159 141.124 61.2159C142.192 61.2159 143.061 61.017 143.732 60.6193C144.402 60.2216 144.743 59.6932 144.754 59.0341C144.743 58.4432 144.482 57.9716 143.97 57.6193C143.459 57.2557 142.658 56.9716 141.567 56.767L136.999 55.8977C134.374 55.4205 132.419 54.5398 131.135 53.2557C129.851 51.9602 129.214 50.3125 129.226 48.3125C129.214 46.5625 129.68 45.0682 130.624 43.8295C131.567 42.5795 132.908 41.625 134.646 40.9659C136.385 40.3068 138.436 39.9773 140.8 39.9773C144.345 39.9773 147.141 40.7216 149.186 42.2102C151.232 43.6875 152.362 45.7216 152.578 48.3125Z" fill="white"/>
        <rect x="0.5" y="1" width="15" height="15" rx="3.5" fill="#18181B" stroke="#27272A"/>
        <rect x="20.5" y="1" width="15" height="15" rx="3.5" fill="#4C1D95" stroke="#6D28D9"/>
        <rect x="40.5" y="1" width="15" height="15" rx="3.5" fill="#5B21B6" stroke="#7C3AED"/>
        <rect x="60.5" y="1" width="15" height="15" rx="3.5" fill="#6D28D9" stroke="#8B5CF6"/>
        <rect x="80.5" y="1" width="15" height="15" rx="3.5" fill="#7C3AED" stroke="#A78BFA"/>
        <rect x="100.5" y="1" width="15" height="15" rx="3.5" fill="#8B5CF6" stroke="#C4B5FD"/>
</svg>